<svg width="150" height="50" xmlns="http://www.w3.org/2000/svg"><g fill="none"><path d="M137.668 0H11.918c-.458 0-.91 0-1.368.003-.383.002-.762.01-1.149.015A16.518 16.518 0 006.896.24a8.331 8.331 0 00-2.376.784 8.047 8.047 0 00-2.023 1.473 7.823 7.823 0 00-1.473 2.027 8.252 8.252 0 00-.781 2.379 16.241 16.241 0 00-.224 2.502c-.012.384-.013.768-.019 1.151v28.893c.006.388.007.764.019 1.153.01.838.085 1.675.224 2.502a8.234 8.234 0 00.781 2.38 7.76 7.76 0 001.473 2.018 7.843 7.843 0 002.023 1.474 8.376 8.376 0 002.376.788c.829.136 1.666.21 2.505.221.387.009.766.013 1.149.013.457.003.91.003 1.368.003h125.75c.45 0 .906 0 1.355-.003.381 0 .772-.004 1.153-.013a16.599 16.599 0 002.5-.22 8.505 8.505 0 002.385-.79 7.847 7.847 0 002.022-1.473 7.994 7.994 0 001.477-2.018 8.255 8.255 0 00.773-2.38 16.883 16.883 0 00.232-2.502c.005-.389.005-.765.005-1.153.01-.454.01-.905.01-1.367v-26.16c0-.459 0-.913-.01-1.366 0-.383 0-.767-.005-1.15a16.884 16.884 0 00-.232-2.503 8.272 8.272 0 00-.774-2.38 8.083 8.083 0 00-3.498-3.5 8.46 8.46 0 00-2.385-.783 16.305 16.305 0 00-2.5-.22c-.381-.007-.772-.014-1.153-.017C138.574 0 138.118 0 137.668 0z" fill="#A6A6A6"/><path d="M10.556 48.906a49.911 49.911 0 01-1.13-.013 15.859 15.859 0 01-2.337-.204 7.355 7.355 0 01-2.07-.685 6.757 6.757 0 01-1.747-1.27 6.651 6.651 0 01-1.276-1.746 7.152 7.152 0 01-.678-2.072 15.517 15.517 0 01-.208-2.343c-.008-.264-.019-1.142-.019-1.142V10.555s.011-.864.019-1.118a15.463 15.463 0 01.207-2.34 7.194 7.194 0 01.679-2.078 6.717 6.717 0 011.269-1.747 6.957 6.957 0 011.753-1.278 7.279 7.279 0 012.066-.68A15.732 15.732 0 019.43 1.11l1.128-.015h128.46l1.142.016a15.481 15.481 0 012.323.203 7.423 7.423 0 012.088.685 6.992 6.992 0 013.02 3.025 7.203 7.203 0 01.668 2.06c.13.78.202 1.57.217 2.36.004.354.004.734.004 1.112.01.47.01.915.01 1.365v26.161c0 .454 0 .897-.01 1.344 0 .407 0 .779-.005 1.162a15.914 15.914 0 01-.213 2.317 7.174 7.174 0 01-.675 2.087 6.85 6.85 0 01-1.27 1.733 6.766 6.766 0 01-1.75 1.278 7.327 7.327 0 01-2.084.687 15.678 15.678 0 01-2.337.204 48.937 48.937 0 01-1.121.013l-1.355.003-127.113-.003z" fill="#000"/><path d="M30.961 25.376a6.186 6.186 0 012.946-5.19 6.332 6.332 0 00-4.99-2.697c-2.098-.22-4.133 1.256-5.203 1.256-1.09 0-2.737-1.234-4.51-1.198a6.644 6.644 0 00-5.592 3.41c-2.417 4.185-.614 10.337 1.702 13.72 1.159 1.657 2.513 3.507 4.284 3.442 1.734-.072 2.382-1.106 4.475-1.106 2.073 0 2.68 1.106 4.488 1.064 1.861-.03 3.033-1.664 4.151-3.337a13.703 13.703 0 001.898-3.865 5.978 5.978 0 01-3.649-5.5zm-3.414-10.112A6.09 6.09 0 0028.94 10.9a6.197 6.197 0 00-4.01 2.075 5.795 5.795 0 00-1.43 4.202 5.124 5.124 0 004.047-1.913zm25.331 18.661H46.96l-1.42 4.195h-2.506l5.604-15.523h2.604l5.604 15.523h-2.549l-1.42-4.196zm-5.304-1.936h4.69l-2.312-6.81h-.065l-2.313 6.81zm21.376.473c0 3.517-1.883 5.776-4.723 5.776a3.837 3.837 0 01-3.561-1.98h-.054v5.606H58.29V26.803h2.249v1.882h.043a4.014 4.014 0 013.603-2c2.872 0 4.766 2.27 4.766 5.777zm-2.388 0c0-2.291-1.184-3.798-2.99-3.798-1.776 0-2.97 1.539-2.97 3.798 0 2.28 1.194 3.807 2.97 3.807 1.806 0 2.99-1.495 2.99-3.807zm14.844 0c0 3.517-1.883 5.776-4.723 5.776a3.837 3.837 0 01-3.561-1.98h-.054v5.606h-2.323V26.803h2.249v1.882h.043a4.014 4.014 0 013.603-2c2.872 0 4.766 2.27 4.766 5.777zm-2.388 0c0-2.291-1.184-3.798-2.99-3.798-1.776 0-2.97 1.539-2.97 3.798 0 2.28 1.194 3.807 2.97 3.807 1.806 0 2.99-1.495 2.99-3.807zm10.62 1.333c.172 1.54 1.668 2.55 3.711 2.55 1.958 0 3.367-1.01 3.367-2.399 0-1.204-.85-1.926-2.862-2.42l-2.011-.485c-2.85-.688-4.174-2.021-4.174-4.184 0-2.679 2.334-4.518 5.648-4.518 3.28 0 5.529 1.84 5.604 4.518h-2.345c-.14-1.55-1.42-2.484-3.292-2.484-1.871 0-3.152.945-3.152 2.322 0 1.098.818 1.744 2.82 2.238l1.71.42c3.184.753 4.507 2.032 4.507 4.303 0 2.904-2.313 4.723-5.992 4.723-3.443 0-5.767-1.776-5.917-4.584h2.378zm14.545-9.67v2.678h2.152v1.84h-2.152v6.239c0 .969.43 1.42 1.377 1.42a7.26 7.26 0 00.764-.053v1.828a6.38 6.38 0 01-1.29.108c-2.292 0-3.185-.86-3.185-3.056v-6.486h-1.646v-1.84h1.646v-2.678h2.334zm3.398 8.337c0-3.56 2.097-5.798 5.368-5.798 3.28 0 5.368 2.237 5.368 5.798 0 3.57-2.076 5.798-5.368 5.798-3.291 0-5.368-2.227-5.368-5.798zm8.37 0c0-2.443-1.12-3.884-3.002-3.884-1.883 0-3 1.453-3 3.884 0 2.452 1.117 3.883 3 3.883 1.882 0 3.001-1.43 3.001-3.883zm4.282-5.659h2.215v1.926h.054a2.7 2.7 0 012.722-2.044c.268-.001.535.028.796.086v2.173a3.247 3.247 0 00-1.044-.14 2.34 2.34 0 00-2.42 2.604v6.712h-2.323V26.803zm16.497 7.993c-.312 2.055-2.313 3.465-4.873 3.465-3.292 0-5.335-2.206-5.335-5.745 0-3.55 2.054-5.852 5.238-5.852 3.13 0 5.1 2.15 5.1 5.582v.796h-7.993v.14a2.947 2.947 0 003.044 3.206 2.56 2.56 0 002.614-1.592h2.205zm-7.852-3.377h5.658a2.722 2.722 0 00-2.776-2.873 2.865 2.865 0 00-2.882 2.873zM44.285 14.645c0-2.418 1.286-3.913 3.36-3.913a2.98 2.98 0 013.1 2.585h-1.153a1.919 1.919 0 00-1.948-1.504c-1.34 0-2.176 1.09-2.176 2.832 0 1.737.837 2.827 2.18 2.827a1.869 1.869 0 001.944-1.374h1.154a2.91 2.91 0 01-3.097 2.455c-2.073 0-3.364-1.494-3.364-3.908zm7.728.91a2.667 2.667 0 115.309 0 2.667 2.667 0 11-5.309 0zm4.166 0c0-1.22-.548-1.933-1.51-1.933-.965 0-1.509.713-1.509 1.933 0 1.23.544 1.938 1.51 1.938.961 0 1.51-.713 1.51-1.938zm2.633-2.812h1.07v.895h.083a1.685 1.685 0 011.68-1.003 1.83 1.83 0 011.948 2.093v3.644h-1.111v-3.365c0-.904-.393-1.354-1.215-1.354a1.291 1.291 0 00-1.344 1.426v3.293h-1.11v-5.629zm8.556-.108c1.266 0 2.094.589 2.202 1.581h-1.065c-.103-.413-.507-.677-1.137-.677-.62 0-1.091.295-1.091.734 0 .336.284.548.895.688l.935.217c1.07.248 1.572.708 1.572 1.535 0 1.06-.988 1.768-2.332 1.768-1.339 0-2.211-.605-2.31-1.602h1.112a1.142 1.142 0 001.224.702c.692 0 1.184-.31 1.184-.76 0-.335-.263-.553-.827-.687l-.982-.228c-1.07-.253-1.566-.733-1.566-1.57 0-.999.914-1.701 2.186-1.701zm3.714-.833l1.297-1.778h1.303l-1.453 1.778h-1.147zm.114.942h1.106v5.628h-1.106v-5.629zm2.836 6.192h1.137c.093.408.563.672 1.313.672.925 0 1.473-.44 1.473-1.184v-1.08h-.083a1.893 1.893 0 01-1.737.945c-1.437 0-2.325-1.11-2.325-2.796 0-1.716.898-2.843 2.336-2.843a1.95 1.95 0 011.768.993h.088v-.9h1.064v5.676c0 1.287-1.008 2.103-2.6 2.103-1.406 0-2.316-.63-2.434-1.586zm3.944-3.448c0-1.122-.58-1.84-1.526-1.84-.956 0-1.493.718-1.493 1.84s.537 1.84 1.493 1.84c.952 0 1.526-.713 1.526-1.84zm7.606 2.884H84.51v-.894h-.088a1.688 1.688 0 01-1.7 1.003 1.828 1.828 0 01-1.94-2.083v-3.655h1.113v3.365c0 .91.366 1.344 1.183 1.344a1.278 1.278 0 001.39-1.416v-3.293h1.112v5.63zm6.53-1.52a2.285 2.285 0 01-2.44 1.629 2.557 2.557 0 01-2.6-2.905 2.596 2.596 0 012.595-2.941c1.567 0 2.511 1.07 2.511 2.837v.388h-3.974v.062a1.488 1.488 0 001.499 1.613 1.35 1.35 0 001.339-.683h1.07zm-3.908-1.814h2.843a1.358 1.358 0 00-1.386-1.458 1.44 1.44 0 00-1.457 1.458zm5.517-4.492h1.111v7.826h-1.11zm2.655 5.01a2.667 2.667 0 115.31 0 2.667 2.667 0 11-5.31 0zm4.167 0c0-1.22-.548-1.934-1.51-1.934-.966 0-1.51.713-1.51 1.933 0 1.23.544 1.938 1.51 1.938.962 0 1.51-.713 1.51-1.938zm10.446 1.296a2.285 2.285 0 01-2.439 1.629 2.557 2.557 0 01-2.6-2.905 2.596 2.596 0 012.596-2.941c1.566 0 2.51 1.07 2.51 2.837v.388h-3.974v.062a1.488 1.488 0 001.499 1.613 1.35 1.35 0 001.34-.683h1.068zm-3.907-1.814h2.843a1.358 1.358 0 00-1.385-1.458 1.44 1.44 0 00-1.458 1.458zm5.466-2.295h1.07v.895h.083a1.685 1.685 0 011.68-1.003 1.83 1.83 0 011.947 2.093v3.644h-1.11v-3.365c0-.904-.393-1.354-1.215-1.354a1.291 1.291 0 00-1.344 1.426v3.293h-1.11v-5.629zm14.312 4.11a2.285 2.285 0 01-2.44 1.628 2.557 2.557 0 01-2.6-2.905 2.596 2.596 0 012.596-2.941c1.566 0 2.51 1.07 2.51 2.837v.388h-3.974v.062a1.488 1.488 0 001.5 1.613 1.35 1.35 0 001.338-.683h1.07zm-3.908-1.815h2.843a1.358 1.358 0 00-1.385-1.458 1.44 1.44 0 00-1.458 1.458zm5.518-4.492h1.11v7.826h-1.11z" fill="#FFF"/></g></svg>