<svg xmlns="http://www.w3.org/2000/svg" viewBox="0 0 412 72"><g fill="none"><path d="M179.39 48.11v-15c0-5.66-3.61-9.47-9.42-9.52a9.27 9.27 0 00-8.41 4.26 8.79 8.79 0 00-7.91-4.26 7.92 7.92 0 00-7 3.56v-3h-5.21v23.96h5.26V34.84c0-4.16 2.3-6.36 5.86-6.36 3.56 0 5.21 2.25 5.21 6.31v13.32H163V34.84c0-4.16 2.4-6.36 5.86-6.36 3.46 0 5.26 2.25 5.26 6.31v13.32h5.27zm77.83-23.94h-8.51v-7.26h-5.26v7.26h-4.86v4.76h4.86v10.91c0 5.56 2.15 8.87 8.31 8.87a12.24 12.24 0 006.51-1.85l-1.5-4.46a9.62 9.62 0 01-4.61 1.35c-2.6 0-3.46-1.6-3.46-4V28.93h8.51l.01-4.76zm44.43-.6a7.06 7.06 0 00-6.31 3.51v-2.91h-5.16v23.94h5.21V34.69c0-4 1.7-6.16 5.11-6.16a8.49 8.49 0 013.26.6l1.6-4.91a11.13 11.13 0 00-3.71-.65zm-67.17 2.5a17.9 17.9 0 00-9.77-2.5c-6.06 0-10 2.91-10 7.66 0 3.91 2.9 6.31 8.26 7.06l2.45.35c2.85.4 4.21 1.15 4.21 2.5 0 1.85-1.9 2.91-5.46 2.91a12.76 12.76 0 01-8-2.5l-2.37 4.05a17.27 17.27 0 0010.37 3.11c6.91 0 10.92-3.26 10.92-7.81 0-4.21-3.16-6.41-8.36-7.16l-2.45-.35c-2.25-.3-4.06-.75-4.06-2.35 0-1.75 1.7-2.8 4.56-2.8a15.43 15.43 0 017.46 2.05l2.24-4.22zM374 23.57a7.06 7.06 0 00-6.31 3.51v-2.91h-5.16v23.94h5.21V34.69c0-4 1.7-6.16 5.11-6.16a8.49 8.49 0 013.26.6l1.6-4.91a11.13 11.13 0 00-3.71-.65zm-67.09 12.57c0 7.26 5.06 12.57 12.77 12.57a12.54 12.54 0 008.61-2.86l-2.5-4.21a10.52 10.52 0 01-6.26 2.15c-4.16 0-7.21-3.06-7.21-7.66s3.06-7.61 7.21-7.66a10.52 10.52 0 016.26 2.15l2.5-4.21a12.54 12.54 0 00-8.61-2.86c-7.71 0-12.77 5.31-12.77 12.57v.02zm48.78 0v-12h-5.21v2.91a9.08 9.08 0 00-7.56-3.51c-6.71 0-12 5.26-12 12.57 0 7.31 5.26 12.57 12 12.57a9.08 9.08 0 007.56-3.51v2.9h5.21V36.14zm-19.38 0c0-4.21 2.75-7.66 7.26-7.66 4.31 0 7.21 3.31 7.21 7.66s-2.9 7.66-7.21 7.66c-4.51 0-7.26-3.46-7.26-7.66zm-62.86-12.57c-7 0-11.92 5.11-11.92 12.57 0 7.61 5.11 12.57 12.27 12.57a14.55 14.55 0 009.82-3.36l-2.55-3.86a11.41 11.41 0 01-7 2.5c-3.36 0-6.41-1.55-7.16-5.86h17.78c.05-.65.1-1.3.1-2 0-7.46-4.66-12.57-11.37-12.57l.03.01zm-.1 4.66c3.36 0 5.51 2.1 6.06 5.81H267c.55-3.46 2.65-5.81 6.36-5.81h-.01zM404 36.14V14.55h-5.21v12.52a9.08 9.08 0 00-7.56-3.51c-6.71 0-12 5.26-12 12.57 0 7.31 5.26 12.57 12 12.57a9.08 9.08 0 007.56-3.51v2.9H404V36.14zm6.09 9.76a1.53 1.53 0 011.09.45 1.49 1.49 0 010 2.14 1.6 1.6 0 01-.49.33 1.5 1.5 0 01-.6.12 1.55 1.55 0 01-1.44-.93 1.5 1.5 0 010-1.18 1.52 1.52 0 01.82-.81 1.57 1.57 0 01.64-.12h-.02zm0 2.7a1.13 1.13 0 00.46-.09 1.19 1.19 0 000-2.18 1.15 1.15 0 00-.46-.09 1.19 1.19 0 00-.47.09 1.19 1.19 0 00-.38 1.93 1.19 1.19 0 00.87.34h-.02zm.09-1.9a.64.64 0 01.42.12.4.4 0 01.15.33.38.38 0 01-.12.29.56.56 0 01-.33.14l.46.53h-.36l-.43-.53h-.14v.53h-.3v-1.4l.65-.01zm-.35.26v.38h.35a.34.34 0 00.19 0 .16.16 0 00.07-.14.16.16 0 00-.07-.14.34.34 0 00-.19 0l-.35-.1zm-25.19-10.82c0-4.21 2.75-7.66 7.26-7.66 4.31 0 7.21 3.31 7.21 7.66s-2.9 7.66-7.21 7.66c-4.51 0-7.26-3.46-7.26-7.66zm-175.9 0v-12h-5.21v2.91a9.08 9.08 0 00-7.53-3.48c-6.71 0-12 5.26-12 12.57 0 7.31 5.26 12.57 12 12.57a9.08 9.08 0 007.56-3.51v2.9h5.21l-.03-11.96zm-19.38 0c0-4.21 2.75-7.66 7.26-7.66 4.31 0 7.21 3.31 7.21 7.66s-2.9 7.66-7.21 7.66c-4.51 0-7.26-3.45-7.26-7.66z" fill="#9E9E9E"/><path fill="#777" d="M43.46 7.68h31.5v56.61h-31.5z"/><path d="M45.46 36A35.94 35.94 0 0159.21 7.7C44.45-3.9 23.254-2.21 10.517 11.581c-12.736 13.792-12.736 35.056 0 48.848C23.254 74.22 44.45 75.909 59.21 64.31A35.94 35.94 0 0145.46 36z" fill="#757575"/><path d="M117.46 36a36 36 0 01-58.25 28.3 36 36 0 000-56.61A36 36 0 01117.46 36z" fill="#9E9E9E"/></g></svg>