<svg xmlns="http://www.w3.org/2000/svg" viewBox="0 0 868 158"><g fill="#9E9E9E"><path d="M22.68 112.915h10.13v10.567c0 7.042 5.677 12.75 12.68 12.75h42.798c2.188 0 3.963-1.783 3.963-3.984 0-2.2-1.775-3.985-3.963-3.985H45.49c-2.626 0-4.755-2.14-4.755-4.781v-10.567h37.646c2.189 0 3.963-1.784 3.963-3.985 0-2.2-1.774-3.985-3.963-3.985h-55.7c-2.627 0-4.756-2.14-4.756-4.781v-62.16h106.012v9.834c0 2.2 1.774 3.985 3.962 3.985 2.189 0 3.963-1.784 3.963-3.985V22.75c0-7.042-5.677-12.751-12.68-12.751H22.68C15.677 10 10 15.709 10 22.75v77.414c0 7.042 5.677 12.75 12.68 12.75zm0-94.882h96.692c2.626 0 4.755 2.14 4.755 4.782v7.395H17.925v-7.46c.035-2.615 2.154-4.717 4.756-4.717z"/><path d="M43.35 87.023H30.098c-2.245 0-4.065 1.677-4.065 3.744 0 2.068 1.82 3.745 4.065 3.745h13.25c2.245 0 4.065-1.677 4.065-3.745 0-2.067-1.82-3.744-4.065-3.744zm18.624 0c-2.138 0-3.87 1.677-3.87 3.744 0 2.068 1.732 3.745 3.87 3.745h12.57c2.137 0 3.87-1.677 3.87-3.745 0-2.067-1.733-3.744-3.87-3.744h-12.57zm-6.009-20.467v-9.235a8.801 8.801 0 00-2.523-6.22 8.654 8.654 0 00-6.15-2.59H35.777c-4.787.01-8.666 3.92-8.675 8.748v9.234c0 4.834 3.881 8.754 8.675 8.763h11.529c4.763-.017 8.624-3.897 8.658-8.7zm-7.8 0a.877.877 0 01-.874.881H35.778a.877.877 0 01-.874-.88V57.32c0-.486.391-.88.874-.88h11.529c.482 0 .873.394.873.88l-.015 9.235zm116.648 9.257a3.962 3.962 0 00-3.96-3.965c-12.926 0-22.335-3.552-30.509-11.513a3.957 3.957 0 00-5.528 0c-8.173 7.93-17.583 11.513-30.508 11.513a3.962 3.962 0 00-3.96 3.965c0 2.157 0 4.393-.08 6.693-.427 22.202-.997 52.429 36.021 65.275a3.956 3.956 0 002.598 0c37.019-12.846 36.433-43.152 36.021-65.275-.063-2.284-.095-4.52-.095-6.693zm-37.24 64.038c-30.271-11.18-29.812-35.587-29.4-57.092v-2.981a47.489 47.489 0 0029.336-11.101 47.489 47.489 0 0029.336 11.1v2.982c.539 21.49 1.014 45.912-29.273 57.092z"/><path d="M135.982 93.414l-12.316 12.672-4.315-4.451a3.857 3.857 0 00-5.576 0c-1.54 1.588-1.54 4.163 0 5.751l7.103 7.328a3.877 3.877 0 002.788 1.193c1.046 0 2.049-.43 2.788-1.193l15.103-15.581c1.388-1.611 1.315-4.06-.166-5.58a3.85 3.85 0 00-5.41-.14zm74.493-15.406h3.185c3.528 0 5.292-1.535 5.292-4.606 0-3.07-1.764-4.606-5.292-4.606h-3.185v9.212zm0 19.992h-9.604V61.054h15.288c4.149 0 7.325 1.078 9.53 3.234 2.206 2.156 3.308 5.194 3.308 9.114 0 3.92-1.102 6.958-3.308 9.114-2.205 2.156-5.381 3.234-9.53 3.234h-5.684V98zm43.65-13.72l-4.312-12.299-4.312 12.299h8.624zm2.548 7.301h-13.72L240.748 98h-10.241l14.063-36.946h10.486L269.119 98h-10.241l-2.205-6.419zm35.467-14.259h19.061c0 1.96-.082 3.74-.245 5.341-.163 1.6-.49 3.087-.98 4.459-.686 1.927-1.617 3.634-2.793 5.12a16.338 16.338 0 01-4.14 3.724 19.462 19.462 0 01-5.219 2.279c-1.895.523-3.887.784-5.978.784-2.875 0-5.496-.474-7.865-1.421-2.368-.947-4.401-2.278-6.1-3.993-1.699-1.716-3.022-3.773-3.969-6.174-.947-2.402-1.421-5.056-1.421-7.963 0-2.875.465-5.512 1.397-7.913.93-2.402 2.253-4.451 3.969-6.15 1.715-1.699 3.78-3.022 6.198-3.969 2.417-.947 5.112-1.421 8.085-1.421 3.855 0 7.236.833 10.143 2.499 2.907 1.666 5.21 4.247 6.909 7.742l-9.114 3.773c-.85-2.025-1.952-3.479-3.307-4.361-1.356-.882-2.9-1.323-4.631-1.323-1.437 0-2.744.27-3.92.808a8.495 8.495 0 00-3.014 2.303c-.833.997-1.486 2.197-1.96 3.602-.473 1.405-.71 2.973-.71 4.704 0 1.568.204 3.022.613 4.361.408 1.34 1.02 2.499 1.837 3.479s1.83 1.74 3.038 2.279c1.209.539 2.613.808 4.214.808.947 0 1.862-.106 2.744-.319a7.24 7.24 0 002.376-1.028 5.855 5.855 0 001.74-1.838c.457-.751.768-1.666.931-2.744h-7.889v-7.448zm35.516 2.205c0 1.47.278 2.826.833 4.067a10.283 10.283 0 002.254 3.234 10.19 10.19 0 003.308 2.132c1.257.506 2.588.759 3.993.759a10.592 10.592 0 007.326-2.891 10.092 10.092 0 002.278-3.234c.555-1.241.833-2.597.833-4.067 0-1.47-.278-2.826-.833-4.067a10.092 10.092 0 00-2.279-3.234 10.592 10.592 0 00-7.326-2.891 10.58 10.58 0 00-3.993.76 10.188 10.188 0 00-3.307 2.131 10.283 10.283 0 00-2.254 3.234c-.555 1.241-.833 2.597-.833 4.067zm-10.045 0c0-2.744.506-5.3 1.519-7.668a19.136 19.136 0 014.214-6.199c1.797-1.764 3.944-3.144 6.444-4.14 2.499-.997 5.25-1.495 8.256-1.495 2.973 0 5.717.498 8.232 1.495 2.515.996 4.68 2.376 6.493 4.14a18.95 18.95 0 014.238 6.199c1.013 2.368 1.519 4.924 1.519 7.668 0 2.744-.506 5.3-1.519 7.668a18.95 18.95 0 01-4.238 6.199c-1.814 1.764-3.978 3.144-6.493 4.14-2.515.997-5.26 1.495-8.232 1.495-3.005 0-5.757-.498-8.256-1.495-2.5-.996-4.647-2.376-6.444-4.14a19.136 19.136 0 01-4.214-6.199c-1.013-2.368-1.519-4.924-1.519-7.668zm69.277-9.016c-1.045-.85-2.09-1.478-3.136-1.886-1.045-.409-2.058-.613-3.038-.613-1.241 0-2.254.294-3.038.882-.784.588-1.176 1.356-1.176 2.303 0 .653.196 1.192.588 1.617.392.425.906.792 1.543 1.103.638.31 1.356.58 2.157.808.8.229 1.592.474 2.376.735 3.136 1.045 5.43 2.442 6.885 4.19 1.453 1.747 2.18 4.026 2.18 6.835 0 1.895-.318 3.61-.955 5.145a10.736 10.736 0 01-2.793 3.945c-1.226 1.094-2.728 1.943-4.508 2.547-1.78.605-3.798.907-6.052.907-4.671 0-9-1.388-12.985-4.165l4.116-7.742c1.437 1.274 2.858 2.221 4.263 2.842 1.405.62 2.793.931 4.165.931 1.568 0 2.736-.36 3.503-1.078.768-.719 1.152-1.535 1.152-2.45 0-.555-.098-1.037-.294-1.446-.196-.408-.523-.783-.98-1.127-.457-.343-1.053-.661-1.788-.955a58.783 58.783 0 00-2.671-.98 53.613 53.613 0 01-3.65-1.298 11.487 11.487 0 01-3.185-1.887c-.932-.784-1.683-1.772-2.255-2.965-.571-1.192-.857-2.703-.857-4.532 0-1.83.302-3.487.906-4.974.605-1.486 1.454-2.76 2.548-3.822 1.095-1.061 2.434-1.886 4.019-2.474 1.584-.588 3.356-.882 5.316-.882 1.83 0 3.74.253 5.733.76a25.286 25.286 0 015.733 2.229l-3.822 7.497zm41.142-1.323h-5.39v-8.134h14.994V98h-9.604V69.188zm30.861 10.29c0 1.633.147 3.12.441 4.459.294 1.34.71 2.499 1.25 3.479.539.98 1.184 1.74 1.935 2.279.751.539 1.6.808 2.548.808.915 0 1.756-.27 2.524-.808.767-.54 1.412-1.299 1.935-2.279.523-.98.931-2.14 1.225-3.479.294-1.34.441-2.826.441-4.459 0-1.6-.147-3.079-.441-4.434-.294-1.356-.702-2.516-1.225-3.48-.523-.963-1.168-1.714-1.935-2.253a4.298 4.298 0 00-2.524-.809c-.947 0-1.797.27-2.548.809-.751.539-1.396 1.29-1.935 2.253-.54.964-.956 2.124-1.25 3.48-.294 1.355-.441 2.833-.441 4.434zm-9.506 0c0-2.94.384-5.61 1.151-8.011.768-2.402 1.846-4.451 3.235-6.15 1.388-1.699 3.037-3.013 4.948-3.944 1.912-.932 4.027-1.397 6.346-1.397 2.287 0 4.394.465 6.321 1.397a14.283 14.283 0 014.949 3.944c1.372 1.699 2.442 3.748 3.21 6.15.767 2.4 1.151 5.071 1.151 8.011 0 2.94-.384 5.61-1.151 8.012-.768 2.4-1.838 4.458-3.21 6.174-1.372 1.715-3.022 3.037-4.949 3.968-1.927.932-4.034 1.397-6.321 1.397-2.32 0-4.434-.465-6.346-1.397-1.91-.93-3.56-2.253-4.948-3.969-1.389-1.715-2.467-3.772-3.235-6.173-.767-2.402-1.151-5.072-1.151-8.012zm44.826 0c0 1.633.147 3.12.441 4.459.294 1.34.71 2.499 1.25 3.479.539.98 1.184 1.74 1.935 2.279.751.539 1.6.808 2.548.808.915 0 1.756-.27 2.524-.808.767-.54 1.412-1.299 1.935-2.279.523-.98.931-2.14 1.225-3.479.294-1.34.441-2.826.441-4.459 0-1.6-.147-3.079-.441-4.434-.294-1.356-.702-2.516-1.225-3.48-.523-.963-1.168-1.714-1.935-2.253a4.298 4.298 0 00-2.524-.809c-.947 0-1.797.27-2.548.809-.751.539-1.396 1.29-1.935 2.253-.54.964-.956 2.124-1.25 3.48-.294 1.355-.441 2.833-.441 4.434zm-9.506 0c0-2.94.384-5.61 1.151-8.011.768-2.402 1.846-4.451 3.235-6.15 1.388-1.699 3.037-3.013 4.948-3.944 1.912-.932 4.027-1.397 6.346-1.397 2.287 0 4.394.465 6.321 1.397a14.283 14.283 0 014.949 3.944c1.372 1.699 2.442 3.748 3.21 6.15.767 2.4 1.151 5.071 1.151 8.011 0 2.94-.384 5.61-1.151 8.012-.768 2.4-1.838 4.458-3.21 6.174-1.372 1.715-3.022 3.037-4.949 3.968-1.927.932-4.034 1.397-6.321 1.397-2.32 0-4.434-.465-6.346-1.397-1.91-.93-3.56-2.253-4.948-3.969-1.389-1.715-2.467-3.772-3.235-6.173-.767-2.402-1.151-5.072-1.151-8.012zm67.856 9.849c0 1.176.4 2.172 1.2 2.989.8.817 1.789 1.225 2.965 1.225 1.143 0 2.123-.408 2.94-1.225.817-.817 1.225-1.797 1.225-2.94a3.94 3.94 0 00-.343-1.642 4.218 4.218 0 00-.931-1.322 4.376 4.376 0 00-1.347-.883 3.958 3.958 0 00-1.544-.318c-1.078 0-2.042.392-2.891 1.176-.85.784-1.274 1.764-1.274 2.94zm-5.978-.098c0-1.372.253-2.605.76-3.7a8.1 8.1 0 012.106-2.792c.899-.768 1.985-1.356 3.259-1.764 1.274-.409 2.679-.613 4.214-.613 1.47 0 2.81.22 4.018.662 1.209.44 2.246 1.061 3.111 1.861a8.63 8.63 0 012.034 2.843c.49 1.094.735 2.278.735 3.552 0 1.372-.245 2.621-.735 3.748a8.2 8.2 0 01-2.082 2.892c-.899.8-1.977 1.42-3.235 1.861-1.257.442-2.654.662-4.189.662-1.503 0-2.866-.212-4.091-.637-1.226-.425-2.279-1.037-3.161-1.838a8.028 8.028 0 01-2.034-2.915c-.473-1.143-.71-2.417-.71-3.822zm5.586-28.175h4.753L535.509 98h-4.802l21.462-36.946zm-25.333 8.575c0 1.11.392 2.09 1.176 2.94.784.85 1.78 1.274 2.989 1.274.555 0 1.086-.114 1.592-.343a4.43 4.43 0 001.324-.906 4.43 4.43 0 00.906-1.323 3.826 3.826 0 00.343-1.593c0-.588-.114-1.135-.343-1.641a4.218 4.218 0 00-.931-1.324 4.376 4.376 0 00-1.348-.881 3.958 3.958 0 00-1.543-.319c-1.11 0-2.082.4-2.915 1.2-.834.8-1.25 1.773-1.25 2.916zm-5.929-.098c0-1.372.253-2.613.76-3.724a7.685 7.685 0 012.131-2.793c.915-.751 2-1.331 3.259-1.74 1.257-.408 2.654-.612 4.189-.612 1.405 0 2.711.22 3.92.662 1.209.44 2.254 1.053 3.136 1.837a8.216 8.216 0 012.058 2.817c.49 1.095.735 2.295.735 3.602 0 1.405-.253 2.67-.76 3.797a8.473 8.473 0 01-2.106 2.892c-.899.8-1.977 1.412-3.235 1.837-1.257.425-2.637.637-4.14.637-3.038 0-5.455-.825-7.252-2.474-1.797-1.65-2.695-3.896-2.695-6.738zm92.592.98c-1.045-.85-2.09-1.478-3.136-1.886-1.045-.409-2.058-.613-3.038-.613-1.241 0-2.254.294-3.038.882-.784.588-1.176 1.356-1.176 2.303 0 .653.196 1.192.588 1.617.392.425.906.792 1.543 1.103.638.31 1.356.58 2.157.808.8.229 1.592.474 2.376.735 3.136 1.045 5.43 2.442 6.885 4.19 1.453 1.747 2.18 4.026 2.18 6.835 0 1.895-.318 3.61-.956 5.145a10.736 10.736 0 01-2.793 3.945c-1.225 1.094-2.727 1.943-4.508 2.547-1.78.605-3.797.907-6.051.907-4.671 0-9-1.388-12.985-4.165l4.116-7.742c1.437 1.274 2.858 2.221 4.263 2.842 1.405.62 2.793.931 4.165.931 1.568 0 2.736-.36 3.504-1.078.767-.719 1.151-1.535 1.151-2.45 0-.555-.098-1.037-.294-1.446-.196-.408-.523-.783-.98-1.127-.457-.343-1.053-.661-1.788-.955a58.783 58.783 0 00-2.671-.98 53.613 53.613 0 01-3.65-1.298 11.487 11.487 0 01-3.186-1.887c-.93-.784-1.682-1.772-2.254-2.965-.571-1.192-.857-2.703-.857-4.532 0-1.83.302-3.487.906-4.974.605-1.486 1.454-2.76 2.548-3.822 1.095-1.061 2.434-1.886 4.019-2.474 1.584-.588 3.356-.882 5.316-.882 1.83 0 3.74.253 5.733.76a25.286 25.286 0 015.733 2.229l-3.822 7.497zm34.389-1.323h-11.417v6.174h10.78v8.134h-10.78v6.37h11.417V98h-21.021V61.054h21.021v8.134zm26.892 8.134h19.061c0 1.96-.082 3.74-.245 5.341-.163 1.6-.49 3.087-.98 4.459-.686 1.927-1.617 3.634-2.793 5.12a16.338 16.338 0 01-4.14 3.724 19.462 19.462 0 01-5.219 2.279c-1.895.523-3.887.784-5.978.784-2.875 0-5.496-.474-7.865-1.421-2.368-.947-4.401-2.278-6.1-3.993-1.699-1.716-3.022-3.773-3.969-6.174-.947-2.402-1.421-5.056-1.421-7.963 0-2.875.465-5.512 1.397-7.913.93-2.402 2.253-4.451 3.968-6.15 1.716-1.699 3.782-3.022 6.199-3.969 2.417-.947 5.112-1.421 8.085-1.421 3.855 0 7.236.833 10.143 2.499 2.907 1.666 5.21 4.247 6.909 7.742l-9.114 3.773c-.85-2.025-1.952-3.479-3.308-4.361-1.355-.882-2.899-1.323-4.63-1.323-1.437 0-2.744.27-3.92.808a8.495 8.495 0 00-3.014 2.303c-.833.997-1.486 2.197-1.96 3.602-.473 1.405-.71 2.973-.71 4.704 0 1.568.204 3.022.612 4.361.409 1.34 1.021 2.499 1.838 3.479.817.98 1.83 1.74 3.038 2.279 1.209.539 2.613.808 4.214.808.947 0 1.862-.106 2.744-.319a7.24 7.24 0 002.377-1.028 5.855 5.855 0 001.739-1.838c.457-.751.768-1.666.931-2.744h-7.889v-7.448zm36.741-16.268v20.09c0 1.078.04 2.18.123 3.307.081 1.128.326 2.148.735 3.063.408.915 1.053 1.658 1.935 2.23.882.571 2.123.857 3.724.857 1.6 0 2.834-.286 3.7-.858a5.313 5.313 0 001.935-2.229c.425-.915.678-1.935.76-3.063.081-1.127.122-2.229.122-3.307v-20.09h9.555v21.413c0 5.75-1.315 9.947-3.945 12.593-2.63 2.646-6.672 3.969-12.127 3.969-5.455 0-9.506-1.323-12.152-3.969-2.646-2.646-3.969-6.844-3.969-12.593V61.054h9.604zm41.935 16.513h1.813c1.895 0 3.348-.392 4.361-1.176 1.013-.784 1.519-1.911 1.519-3.381 0-1.47-.506-2.597-1.519-3.381-1.013-.784-2.466-1.176-4.361-1.176h-1.813v9.114zM774.575 98h-11.956l-9.163-14.21V98h-9.604V61.054h14.945c2.058 0 3.855.302 5.39.907 1.535.604 2.801 1.429 3.798 2.474a10.433 10.433 0 012.254 3.626c.506 1.372.759 2.842.759 4.41 0 2.81-.678 5.088-2.034 6.835-1.355 1.748-3.356 2.932-6.002 3.553L774.575 98zm13.711-18.473c0 1.47.278 2.826.833 4.067a10.283 10.283 0 002.254 3.234 10.19 10.19 0 003.308 2.132c1.257.506 2.588.759 3.993.759A10.592 10.592 0 00806 86.828a10.092 10.092 0 002.278-3.234c.555-1.241.833-2.597.833-4.067 0-1.47-.278-2.826-.833-4.067a10.092 10.092 0 00-2.279-3.234 10.592 10.592 0 00-7.326-2.891c-1.404 0-2.735.253-3.992.76a10.188 10.188 0 00-3.308 2.131 10.283 10.283 0 00-2.254 3.234c-.555 1.241-.833 2.597-.833 4.067zm-10.045 0c0-2.744.506-5.3 1.519-7.668a19.136 19.136 0 014.214-6.199c1.797-1.764 3.944-3.144 6.443-4.14 2.5-.997 5.252-1.495 8.257-1.495 2.973 0 5.717.498 8.232 1.495 2.515.996 4.68 2.376 6.493 4.14a18.95 18.95 0 014.238 6.199c1.013 2.368 1.519 4.924 1.519 7.668 0 2.744-.506 5.3-1.519 7.668a18.95 18.95 0 01-4.238 6.199c-1.814 1.764-3.978 3.144-6.493 4.14-2.515.997-5.26 1.495-8.232 1.495-3.005 0-5.757-.498-8.256-1.495-2.5-.996-4.647-2.376-6.444-4.14a19.136 19.136 0 01-4.214-6.199c-1.013-2.368-1.519-4.924-1.519-7.668zm69.277-9.016c-1.045-.85-2.09-1.478-3.136-1.886-1.045-.409-2.058-.613-3.038-.613-1.241 0-2.254.294-3.038.882-.784.588-1.176 1.356-1.176 2.303 0 .653.196 1.192.588 1.617.392.425.906.792 1.543 1.103.638.31 1.356.58 2.157.808.8.229 1.592.474 2.376.735 3.136 1.045 5.43 2.442 6.885 4.19 1.453 1.747 2.18 4.026 2.18 6.835 0 1.895-.318 3.61-.956 5.145a10.736 10.736 0 01-2.793 3.945c-1.225 1.094-2.727 1.943-4.508 2.547-1.78.605-3.797.907-6.051.907-4.671 0-9-1.388-12.985-4.165l4.116-7.742c1.437 1.274 2.858 2.221 4.263 2.842 1.405.62 2.793.931 4.165.931 1.568 0 2.736-.36 3.504-1.078.767-.719 1.151-1.535 1.151-2.45 0-.555-.098-1.037-.294-1.446-.196-.408-.523-.783-.98-1.127-.457-.343-1.053-.661-1.788-.955a58.783 58.783 0 00-2.671-.98 53.613 53.613 0 01-3.65-1.298 11.487 11.487 0 01-3.185-1.887c-.932-.784-1.683-1.772-2.255-2.965-.571-1.192-.857-2.703-.857-4.532 0-1.83.302-3.487.906-4.974.605-1.486 1.454-2.76 2.548-3.822 1.095-1.061 2.434-1.886 4.019-2.474 1.584-.588 3.356-.882 5.316-.882 1.83 0 3.74.253 5.733.76a25.286 25.286 0 015.733 2.229l-3.822 7.497z"/></g></svg>