<svg viewBox="0 0 747 158" xmlns="http://www.w3.org/2000/svg"><g transform="translate(10 10)" fill="none" fill-rule="evenodd"><circle stroke="#9E9E9E" stroke-width="12" cx="69" cy="69" r="27"/><path d="M138 69c0 38.108-30.892 69-69 69-38.108 0-69-30.892-69-69C0 30.892 30.892 0 69 0" stroke="#9E9E9E" stroke-width="12" stroke-linecap="round"/><path d="M69 117c-26.51 0-48-21.49-48-48s21.49-48 48-48 48 21.49 48 48" stroke="#9E9E9E" stroke-width="12" stroke-linecap="round"/><path d="M206.722 63.398c-2.312-2.822-5.168-4.233-8.568-4.233-1.496 0-2.881.272-4.156.816a10.115 10.115 0 00-3.29 2.218c-.918.936-1.64 2.049-2.167 3.341-.528 1.292-.791 2.686-.791 4.182 0 1.53.263 2.941.79 4.233a10.297 10.297 0 002.194 3.366 10.28 10.28 0 003.289 2.244c1.258.544 2.618.816 4.08.816 3.196 0 6.069-1.36 8.619-4.08v11.832l-1.02.357c-1.53.544-2.958.943-4.284 1.199a20.76 20.76 0 01-3.927.382c-2.652 0-5.193-.501-7.625-1.504a19.936 19.936 0 01-6.426-4.233c-1.853-1.82-3.34-3.978-4.462-6.478-1.122-2.499-1.683-5.227-1.683-8.185s.552-5.67 1.657-8.135c1.106-2.465 2.584-4.59 4.438-6.375 1.853-1.785 4.003-3.178 6.451-4.181a20.117 20.117 0 017.701-1.505c1.53 0 3.034.161 4.513.484 1.48.324 3.035.825 4.667 1.505v11.934zm16.838 6.375c0 1.53.289 2.941.867 4.233a10.703 10.703 0 002.346 3.366 10.604 10.604 0 003.442 2.219c1.31.527 2.695.79 4.157.79a11.024 11.024 0 007.624-3.009 10.504 10.504 0 002.372-3.366c.578-1.292.867-2.703.867-4.233 0-1.53-.29-2.941-.867-4.233a10.504 10.504 0 00-2.372-3.366 11.024 11.024 0 00-7.624-3.009c-1.462 0-2.848.263-4.157.79a10.604 10.604 0 00-3.442 2.219 10.703 10.703 0 00-2.346 3.366c-.578 1.292-.867 2.703-.867 4.233zm-10.455 0c0-2.856.527-5.516 1.58-7.981a19.917 19.917 0 014.387-6.452c1.87-1.836 4.105-3.272 6.706-4.31 2.601-1.037 5.466-1.555 8.594-1.555 3.094 0 5.95.518 8.568 1.556 2.618 1.037 4.87 2.473 6.757 4.309a19.723 19.723 0 014.412 6.451c1.054 2.466 1.58 5.126 1.58 7.982s-.526 5.516-1.58 7.981a19.723 19.723 0 01-4.412 6.452c-1.887 1.836-4.14 3.272-6.757 4.31-2.618 1.037-5.474 1.555-8.568 1.555-3.128 0-5.993-.518-8.594-1.555-2.6-1.038-4.836-2.474-6.706-4.31a19.917 19.917 0 01-4.386-6.452c-1.054-2.465-1.581-5.125-1.581-7.981zM263.245 89V50.546h9.996l18.462 23.511V50.546h9.945V89h-9.945l-18.462-23.511V89h-9.996zm69.725-29.988h-12.036v6.426h10.965v8.466h-10.965V89h-9.996V50.546h22.032v8.466zm17.195-8.466V89h-9.996V50.546h9.996zm30.2 24.174l-4.489-12.801-4.488 12.801h8.976zm2.651 7.599h-14.28L366.441 89h-10.659l14.637-38.454h10.914L395.97 89h-10.659l-2.295-6.681zM401.588 89V50.546h9.996l18.462 23.511V50.546h9.945V89h-9.945l-18.462-23.511V89h-9.996zm61.207-8.466h16.116V89h-32.895l18.207-29.988h-15.147v-8.466H480.9l-18.105 29.988zm45.041-5.814l-4.488-12.801-4.488 12.801h8.976zm2.652 7.599h-14.28L493.913 89h-10.659l14.637-38.454h10.914L523.442 89h-10.659l-2.295-6.681zm17.232-12.718c0-5.412 1.984-10.06 5.952-13.945 3.951-3.885 8.699-5.827 14.244-5.827 5.478 0 10.177 1.959 14.095 5.877 3.934 3.918 5.902 8.624 5.902 14.12 0 5.528-1.976 10.217-5.927 14.069-3.968 3.868-8.758 5.802-14.369 5.802-4.964 0-9.421-1.718-13.372-5.155-4.35-3.801-6.525-8.782-6.525-14.94zm5.852.075c0 4.25 1.428 7.744 4.283 10.484 2.84 2.739 6.118 4.109 9.837 4.109 4.034 0 7.437-1.395 10.21-4.184 2.772-2.822 4.158-6.259 4.158-10.31 0-4.1-1.37-7.537-4.108-10.31-2.723-2.788-6.093-4.183-10.11-4.183-4.002 0-7.38 1.395-10.136 4.184-2.756 2.756-4.134 6.159-4.134 10.21zM576.441 89V47.936l28.04 29.335v-26.72h5.802v40.79l-28.04-29.26V89h-5.802zm50.09-38.45v32.996h11.305V89h-17.108V50.55h5.803zm23.843 0V89h-5.803V50.55h5.803zM660.844 89V47.936l28.04 29.335v-26.72h5.802v40.79l-28.04-29.26V89h-5.802zm65.505-32.996h-15.415v9.24H725.9v5.453h-14.966v12.85h15.415V89h-21.217V50.55h21.217v5.454z" fill="#9E9E9E" fill-rule="nonzero"/></g></svg>