<svg viewBox="0 0 292 92" xmlns="http://www.w3.org/2000/svg"><g fill="none"><path d="M119.259.23l-14.643 91.122h23.405L142.655.23h-23.396zm70.598 37.118c-8.179-4.039-13.193-6.765-13.193-10.896.1-3.756 4.24-7.604 13.485-7.604 7.604-.191 13.193 1.596 17.433 3.374l2.124.948 3.182-19.065C208.265 2.318 200.935.349 191.881.349c-23.113 0-39.388 12.017-39.489 29.204-.191 12.683 11.652 19.721 20.515 23.943 9.054 4.331 12.136 7.139 12.136 10.987-.1 5.908-7.321 8.634-14.059 8.634-9.336 0-14.351-1.404-21.964-4.696l-3.082-1.404-3.273 19.813c5.498 2.444 15.609 4.595 26.104 4.705 24.563 0 40.546-11.835 40.747-30.152.08-10.048-6.165-17.744-19.659-24.035zM272.891.512h-18.108c-5.58 0-9.82 1.605-12.236 7.331l-34.766 83.509h24.563l6.765-18.08h27.481l3.51 18.153h21.664L272.891.512zm-26.97 54.514c.474.046 9.428-29.514 9.428-29.514l7.13 29.514h-16.558zM85.059.23L62.128 62.139 59.63 49.93c-4.24-14.087-17.533-29.395-32.368-36.999l20.998 78.33h24.764L109.823.24H85.059V.23z" fill="#9E9E9E"/><path d="M51.916 11.982C50.129 5.034 44.43.348 36.69.248H.374L0 1.934c28.329 6.984 52.107 28.474 59.821 48.688l-7.905-38.64z" fill="rgba(158,158,158,.8)"/></g></svg>