<svg width="169" height="50" xmlns="http://www.w3.org/2000/svg"><defs><linearGradient x1="91.203%" y1="4.751%" x2="-38.291%" y2="71.773%" id="a"><stop stop-color="#00A0FF" offset="0%"/><stop stop-color="#00A1FF" offset=".657%"/><stop stop-color="#00BEFF" offset="26.01%"/><stop stop-color="#00D2FF" offset="51.22%"/><stop stop-color="#00DFFF" offset="76.04%"/><stop stop-color="#00E3FF" offset="100%"/></linearGradient><linearGradient x1="108.23%" y1="50.484%" x2="-130.398%" y2="50.484%" id="b"><stop stop-color="#FFE000" offset="0%"/><stop stop-color="#FFBD00" offset="40.87%"/><stop stop-color="orange" offset="77.54%"/><stop stop-color="#FF9C00" offset="100%"/></linearGradient><linearGradient x1="86.34%" y1="17.823%" x2="-50.427%" y2="194.483%" id="c"><stop stop-color="#FF3A44" offset="0%"/><stop stop-color="#C31162" offset="100%"/></linearGradient><linearGradient x1="-19.005%" y1="-53.881%" x2="42.067%" y2="25.005%" id="d"><stop stop-color="#32A071" offset="0%"/><stop stop-color="#2DA771" offset="6.85%"/><stop stop-color="#15CF74" offset="47.62%"/><stop stop-color="#06E775" offset="80.09%"/><stop stop-color="#00F076" offset="100%"/></linearGradient></defs><g fill="none"><path d="M162.6 50H6.4C3 50 .2 47.2.2 43.8V6.2C.1 2.8 2.9 0 6.4 0h156.2c3.4 0 6.2 2.8 6.2 6.2v37.5c.1 3.5-2.7 6.3-6.2 6.3z" fill="#000"/><path d="M162.6 1c2.9 0 5.2 2.4 5.2 5.3v37.5c0 2.9-2.4 5.3-5.2 5.3H6.4c-2.9 0-5.2-2.4-5.2-5.3V6.3C1.1 3.4 3.5 1 6.4 1h156.2zm0-1H6.4C2.9 0 .1 2.8.1 6.3v37.5c0 3.4 2.8 6.2 6.2 6.2h156.2c3.4 0 6.2-2.8 6.2-6.2V6.3c.2-3.5-2.6-6.3-6.1-6.3z" fill="#A6A6A6"/><path d="M85.3 27.2c-2.9 0-5.3 2.2-5.3 5.3 0 3.1 2.4 5.3 5.3 5.3s5.3-2.3 5.3-5.3c0-3.1-2.4-5.3-5.3-5.3zm0 8.5c-1.6 0-3-1.3-3-3.2 0-1.9 1.4-3.2 3-3.2s3 1.3 3 3.2c0 1.9-1.4 3.2-3 3.2zm-11.6-8.5c-2.9 0-5.3 2.2-5.3 5.3 0 3.1 2.4 5.3 5.3 5.3s5.3-2.3 5.3-5.3c0-3.1-2.4-5.3-5.3-5.3zm0 8.5c-1.6 0-3-1.3-3-3.2 0-1.9 1.4-3.2 3-3.2s3 1.3 3 3.2c0 1.9-1.4 3.2-3 3.2zm-13.9-6.9v2.3h5.4c-.2 1.3-.6 2.2-1.2 2.8-.8.8-2 1.7-4.2 1.7-3.3 0-5.9-2.7-5.9-6s2.6-6 5.9-6c1.8 0 3.1.7 4.1 1.6l1.6-1.6c-1.3-1.3-3.1-2.3-5.7-2.3-4.6 0-8.4 3.7-8.4 8.3 0 4.6 3.8 8.3 8.4 8.3 2.5 0 4.3-.8 5.8-2.3 1.5-1.5 2-3.6 2-5.3 0-.5 0-1-.1-1.4h-7.7v-.1zm56.6 1.8c-.4-1.2-1.8-3.4-4.6-3.4-2.7 0-5 2.2-5 5.3 0 3 2.3 5.3 5.3 5.3 2.4 0 3.8-1.5 4.4-2.4l-1.8-1.2c-.6.9-1.4 1.5-2.6 1.5-1.2 0-2-.5-2.6-1.6l7.1-2.9-.2-.6zm-7.2 1.7c-.1-2.1 1.6-3.1 2.8-3.1.9 0 1.7.5 2 1.1l-4.8 2zm-5.8 5.2h2.3V21.9h-2.3v15.6zm-3.8-9.1c-.6-.6-1.6-1.2-2.9-1.2-2.7 0-5.1 2.3-5.1 5.3s2.4 5.3 5.1 5.3c1.3 0 2.3-.6 2.8-1.2h.1v.8c0 2-1.1 3.1-2.8 3.1-1.4 0-2.3-1-2.7-1.9l-2 .8c.6 1.4 2.1 3.1 4.7 3.1 2.7 0 5.1-1.6 5.1-5.5v-9.5h-2.2v.9h-.1zm-2.7 7.3c-1.6 0-3-1.3-3-3.2 0-1.9 1.3-3.2 3-3.2 1.6 0 2.8 1.4 2.8 3.2 0 1.9-1.2 3.2-2.8 3.2zm30.5-13.8h-5.6v15.6h2.3v-5.9h3.3c2.6 0 5.1-1.9 5.1-4.9 0-3-2.5-4.8-5.1-4.8zm0 7.5h-3.3V24h3.3c1.7 0 2.7 1.4 2.7 2.7.1 1.2-.9 2.7-2.7 2.7zm14.5-2.2c-1.7 0-3.4.7-4.2 2.4l2.1.9c.4-.9 1.3-1.1 2.1-1.1 1.2 0 2.4.7 2.5 2v.2c-.4-.2-1.3-.6-2.4-.6-2.2 0-4.5 1.2-4.5 3.5 0 2.1 1.8 3.4 3.9 3.4 1.6 0 2.4-.7 3-1.5h.1v1.2h2.3v-6c-.2-2.9-2.3-4.4-4.9-4.4zm-.3 8.5c-.8 0-1.8-.4-1.8-1.3 0-1.2 1.3-1.7 2.5-1.7 1 0 1.5.2 2.1.5-.2 1.5-1.5 2.5-2.8 2.5zm13.2-8.2l-2.7 6.8h-.1l-2.8-6.8h-2.5l4.2 9.5-2.4 5.3h2.4l6.4-14.7h-2.5v-.1zm-21 10h2.3V21.9h-2.3v15.6z" fill="#FFF"/><path d="M1.2 1.4c-.4.4-.6 1-.6 1.8v27.6c0 .8.2 1.4.6 1.8l.1.1 15.5-15.5v-.4L1.2 1.4z" fill="url(#a)" transform="translate(12 8)"/><path d="M21.9 22.3l-5.2-5.2v-.3l5.2-5.2.1.1 6.1 3.5c1.7 1 1.7 2.6 0 3.6L22 22.3h-.1z" fill="url(#b)" transform="translate(12 8)"/><path d="M22 22.3L16.7 17 1.2 32.6c.6.6 1.5.7 2.6.1L22 22.3" fill="url(#c)" transform="translate(12 8)"/><path d="M22 11.7L3.8 1.3c-1.1-.6-2-.5-2.6.1L16.7 17l5.3-5.3z" fill="url(#d)" transform="translate(12 8)"/><g fill="#000"><path d="M33.9 30.2L15.8 40.5c-1 .6-1.9.5-2.5 0l-.1.1.1.1c.6.5 1.5.6 2.5 0L34 30.3l-.1-.1z" opacity=".2"/><path d="M13.2 40.4c-.4-.4-.6-1-.6-1.8v.2c0 .8.2 1.4.6 1.8v-.2z" opacity=".12"/></g><path d="M40.1 26.6l-6.2 3.5.1.1 6.1-3.5c.9-.5 1.3-1.2 1.3-1.8 0 .7-.5 1.3-1.3 1.7z" fill="#000" opacity=".12"/><path d="M15.8 9.5l24.4 13.8c.8.4 1.2 1 1.3 1.6 0-.7-.4-1.3-1.3-1.8L15.8 9.3c-1.7-1-3.2-.2-3.2 1.8v.2c0-1.9 1.4-2.8 3.2-1.8z" fill="#FFF" opacity=".25"/><path d="M51.7 16.3V8.8H54c1.2 0 2.1.3 2.8 1 .7.7 1 1.6 1 2.7s-.3 2-1 2.7c-.7.7-1.6 1-2.8 1h-2.3v.1zm1-1H54c.9 0 1.6-.2 2.1-.7.5-.5.8-1.2.8-2.1 0-.9-.3-1.6-.8-2.1s-1.2-.7-2.1-.7h-1.3v5.6zm6.5 1V8.8h1v7.5zm4.8.1c-.5 0-1.1-.2-1.6-.5-.5-.4-.9-.9-1-1.5l.9-.4c.1.4.3.8.6 1 .3.3.7.4 1.1.4.4 0 .8-.1 1.1-.3.3-.2.4-.5.4-.9s-.1-.7-.4-1c-.3-.2-.8-.4-1.4-.6-.7-.2-1.2-.5-1.5-.8-.3-.3-.5-.8-.5-1.3s.2-1 .6-1.4c.4-.4 1-.6 1.7-.6.6 0 1.2.2 1.6.5.4.3.7.7.8 1l-.9.4c-.1-.2-.2-.5-.5-.7-.2-.2-.6-.3-1-.3s-.7.1-.9.3c-.3.2-.4.5-.4.8 0 .3.1.5.4.7.2.2.6.4 1.1.5.4.1.7.2.9.3.2.1.5.3.8.4.3.2.4.4.6.7.1.3.2.6.2 1s-.1.7-.2 1c-.2.3-.4.5-.6.7-.2.2-.5.3-.8.4-.3.1-.8.2-1.1.2zm4.8-.1h-1V8.8h2.6c.6 0 1.2.2 1.6.6.5.4.7 1 .7 1.6 0 .6-.2 1.2-.7 1.6-.5.4-1 .6-1.6.6h-1.6v3.1zm0-4h1.6c.4 0 .7-.1 1-.4.2-.3.4-.6.4-.9 0-.3-.1-.6-.4-.9-.2-.3-.6-.4-1-.4h-1.6v2.6zm11.3 3c-.7.8-1.7 1.1-2.8 1.1-1.1 0-2-.4-2.7-1.1-.7-.8-1.1-1.7-1.1-2.8 0-1.1.4-2 1.1-2.8.7-.8 1.7-1.1 2.7-1.1 1.1 0 2 .4 2.7 1.1.7.8 1.1 1.7 1.1 2.8.1 1.1-.3 2-1 2.8zm-4.8-.6c.6.6 1.2.8 2 .8s1.5-.3 2-.8c.6-.6.8-1.3.8-2.2 0-.9-.3-1.6-.8-2.2-.6-.6-1.2-.8-2-.8s-1.5.3-2 .8c-.6.6-.8 1.3-.8 2.2 0 .9.3 1.6.8 2.2zm7.3 1.6V8.8h1.2l3.6 5.8h0V8.8h1v7.5h-1l-3.8-6.1h0v6.1zm7.5 0V8.8h1v7.5zm2.6 0V8.8h2.7c.6 0 1.1.2 1.5.6.4.4.6.9.6 1.5 0 .4-.1.7-.3.9-.2.3-.4.5-.7.6.4.1.7.3.9.6.2.3.4.7.4 1.1 0 .6-.2 1.1-.7 1.5-.5.4-1 .6-1.6.6h-2.8v.1zm1-4.3h1.7c.4 0 .7-.1.9-.4.2-.2.3-.5.3-.8 0-.3-.1-.5-.3-.8-.2-.2-.5-.4-.8-.4h-1.8V12zm0 3.3h1.9c.4 0 .7-.1.9-.4.2-.3.3-.5.3-.8 0-.3-.1-.6-.4-.8-.2-.3-.5-.4-.9-.4h-1.9v2.4h.1zm5.5 1V8.8h1v6.6h3.2v.9zm9.8-6.6h-3.4V12h3.1v1h-3.1v2.4h3.4v.9h-4.4V8.8h4.4zm8.4 0H114V12h3.1v1H114v2.4h3.4v.9H113V8.8h4.4zm1.5 6.6V8.8h1.2l3.6 5.8h0V8.8h1v7.5h-1l-3.8-6.1h0v6.1z" fill="#FFF" stroke="#FFF" stroke-width=".2"/></g></svg>